#!OML:ASF F:\VICON\USERDATA\INSTALL\rory3\rory3.ASF
:FULLY-SPECIFIED
:DEGREES
4342
root 2.86098 18.2775 6.95802 -4.57463 9.33412 -8.69698
lowerback 7.73864 3.96273 2.32714
upperback 0.217587 5.42277 -1.49548
thorax -3.73908 2.64096 -3.42368
lowerneck -5.78533 -6.97591 -7.11767
upperneck -9.38978 -8.12194 16.6159
head -0.732971 -4.06308 6.05432
rclavicle 4.99943e-014 6.36111e-015
rhumerus 41.043 21.8228 -15.779
rradius 96.5609
rwrist 39.1354
rhand -50.7862 2.40334
rfingers 7.12502
rthumb -23.3435 -26.2012
lclavicle 4.99943e-014 6.36111e-015
lhumerus -30.7877 2.28374 73.6163
lradius 20.0251
lwrist -13.8573
lhand -30.139 25.7736
lfingers 7.12502
lthumb -3.4517 55.7254
rfemur -4.92808 12.3793 11.583
rtibia 34.0789
rfoot -3.35213 -20.3228
rtoes -19.7934
lfemur -11.6008 -6.76465 -11.5412
ltibia 41.3952
lfoot -22.0867 1.41063
ltoes -0.716461
4343
root 2.84283 18.2495 6.95626 -4.59567 8.96504 -8.48595
lowerback 7.76297 3.9057 2.2297
upperback 0.2971 5.33973 -1.45576
thorax -3.68863 2.60366 -3.3186
lowerneck -5.94978 -6.93863 -7.4113
upperneck -9.15483 -8.08266 16.6233
head -0.62897 -4.02237 6.0948
rclavicle 1.33186e-014 -7.95139e-015
rhumerus 40.4627 24.0487 -16.1158
rradius 97.2448
rwrist 39.0938
rhand -50.9293 1.98821
rfingers 7.12502
rthumb -23.4808 -26.5989
lclavicle 1.33186e-014 -7.95139e-015
lhumerus -30.8392 2.52261 73.6243
lradius 20.0652
lwrist -13.8535
lhand -29.4463 26.9419
lfingers 7.12502
lthumb -2.78275 56.9035
rfemur -4.93424 12.2952 11.3991
rtibia 34.1701
rfoot -3.7551 -20.1
rtoes -20.2757
lfemur -11.6546 -6.56553 -11.716
ltibia 41.8131
lfoot -22.357 1.52199
ltoes -0.826405
4344
root 2.82291 18.2245 6.96013 -4.65329 8.63323 -8.25085
lowerback 7.79385 3.90934 2.07681
upperback 0.340072 5.32999 -1.48801
thorax -3.67267 2.60194 -3.26665
lowerneck -6.08057 -6.93425 -7.39897
upperneck -8.82642 -8.11677 16.4998
head -0.51643 -4.02442 6.03985
rclavicle 7.96133e-014 -1.74931e-014
rhumerus 39.3928 26.3319 -16.8541
rradius 97.8396
rwrist 39.1399
rhand -51.0042 1.76392
rfingers 7.12502
rthumb -23.5527 -26.8139
lclavicle 7.96133e-014 -1.74931e-014
lhumerus -30.8039 2.48883 73.5389
lradius 19.9048
lwrist -13.7467
lhand -28.9205 27.3327
lfingers 7.12502
lthumb -2.27493 57.3004
rfemur -4.84904 12.2793 11.2269
rtibia 34.252
rfoot -4.40385 -19.9299
rtoes -20.1682
lfemur -11.6628 -6.41898 -11.9127
ltibia 42.2392
lfoot -22.6462 1.57991
ltoes -0.737081
4345
root 2.80036 18.1953 6.9625 -4.691 8.26379 -8.0653
lowerback 7.77015 3.91328 1.94664
upperback 0.379897 5.32282 -1.49821
thorax -3.62937 2.6018 -3.20038
lowerneck -6.18396 -6.87839 -7.42215
upperneck -8.53317 -8.0741 16.4166
head -0.423625 -3.99002 6.00894
rclavicle -4.62174e-014 1.27222e-014
rhumerus 38.3692 28.6417 -17.6059
rradius 98.2862
rwrist 39.0236
rhand -51.0716 1.55951
rfingers 7.12502
rthumb -23.6173 -27.01
lclavicle -4.62174e-014 1.27222e-014
lhumerus -30.783 2.83501 73.3132
lradius 19.5859
lwrist -13.8012
lhand -29.2392 26.9298
lfingers 7.12502
lthumb -2.58276 56.894
rfemur -4.86183 12.2557 11.0985
rtibia 34.334
rfoot -5.01869 -19.8218
rtoes -19.4336
lfemur -11.725 -6.2389 -12.0412
ltibia 42.6751
lfoot -22.9117 1.69546
ltoes -0.882054
4346
root 2.77614 18.1621 6.964 -4.76498 7.80629 -8.05252
lowerback 7.66037 3.90901 1.95841
upperback 0.502658 5.31967 -1.41326
thorax -3.44786 2.60577 -3.10335
lowerneck -6.31745 -6.83036 -7.456
upperneck -8.34589 -8.02839 16.3003
head -0.358365 -3.95546 5.97183
rclavicle 4.2043e-014 -9.54166e-015
rhumerus 37.6739 30.9063 -18.15
rradius 98.4863
rwrist 38.7457
rhand -51.1378 0.789049
rfingers 7.12502
rthumb -23.6808 -27.7723
lclavicle 4.2043e-014 -9.54166e-015
lhumerus -30.7438 3.2335 73.1852
lradius 19.3262
lwrist -13.873
lhand -29.6755 26.7562
lfingers 7.12502
lthumb -3.00404 56.7147
rfemur -4.866 12.3135 11.1824
rtibia 34.3914
rfoot -5.44304 -19.7388
rtoes -18.5493
lfemur -11.7697 -5.93548 -11.949
ltibia 43.1392
lfoot -23.1943 1.72026
ltoes -0.785583
4347
root 2.74845 18.1346 6.96781 -4.86432 7.35275 -8.14714
lowerback 7.60491 3.88533 2.05837
upperback 0.576663 5.30018 -1.29137
thorax -3.34396 2.59827 -3.02277
lowerneck -6.32394 -6.76797 -7.52479
upperneck -8.19447 -7.96401 16.152
head -0.326746 -3.91711 5.93674
rclavicle -1.77912e-014 2.70347e-014
rhumerus 36.9188 33.315 -18.8679
rradius 98.4935
rwrist 38.6542
rhand -51.549 0.68253
rfingers 7.12502
rthumb -24.0751 -27.8272
lclavicle -1.77912e-014 2.70347e-014
lhumerus -30.8558 3.47284 73.0811
lradius 19.2276
lwrist -14.065
lhand -29.7387 26.9921
lfingers 7.12502
lthumb -3.06508 56.9498
rfemur -4.8071 12.5445 11.4585
rtibia 34.4478
rfoot -5.89918 -19.8768
rtoes -18.2003
lfemur -11.7964 -5.5188 -11.6983
ltibia 43.5905
lfoot -23.4622 1.71343
ltoes -0.974605
